<svg width="23" height="23" viewBox="0 0 23 23" fill="none" xmlns="http://www.w3.org/2000/svg">
<path d="M11.6289 13.1367C11.6075 13.1367 11.5754 13.1367 11.554 13.1367C11.5219 13.1367 11.4791 13.1367 11.4471 13.1367C9.01865 13.0618 7.20004 11.1683 7.20004 8.8362C7.20004 6.46133 9.13632 4.52505 11.5112 4.52505C13.8861 4.52505 15.8224 6.46133 15.8224 8.8362C15.8117 11.179 13.9824 13.0618 11.661 13.1367C11.6396 13.1367 11.6396 13.1367 11.6289 13.1367ZM11.5005 6.119C10.0029 6.119 8.794 7.33853 8.794 8.8255C8.794 10.2911 9.93868 11.4785 11.3936 11.532C11.4257 11.5213 11.5326 11.5213 11.6396 11.532C13.0731 11.4571 14.1964 10.2804 14.2071 8.8255C14.2071 7.33853 12.9982 6.119 11.5005 6.119Z" fill="#118EEA"/>
<path d="M11.5008 23C8.62317 23 5.87387 21.9302 3.74503 19.9833C3.55247 19.8121 3.46689 19.5554 3.48829 19.3093C3.62736 18.0363 4.41898 16.8489 5.7348 15.9717C8.9227 13.8535 14.0897 13.8535 17.2669 15.9717C18.5827 16.8596 19.3743 18.0363 19.5134 19.3093C19.5455 19.5661 19.4492 19.8121 19.2566 19.9833C17.1278 21.9302 14.3785 23 11.5008 23ZM5.16782 19.0954C6.94363 20.5823 9.17945 21.3953 11.5008 21.3953C13.8222 21.3953 16.058 20.5823 17.8339 19.0954C17.6413 18.4428 17.1278 17.8116 16.3683 17.2982C13.7366 15.5437 9.27573 15.5437 6.6227 17.2982C5.86317 17.8116 5.36038 18.4428 5.16782 19.0954Z" fill="#118EEA"/>
<path d="M11.5 22.9999C5.15628 22.9999 0 17.8436 0 11.4999C0 5.15626 5.15628 0 11.5 0C17.8437 0 23 5.15626 23 11.4999C23 17.8436 17.8437 22.9999 11.5 22.9999ZM11.5 1.60464C6.04419 1.60464 1.60465 6.04416 1.60465 11.4999C1.60465 16.9557 6.04419 21.3953 11.5 21.3953C16.9558 21.3953 21.3953 16.9557 21.3953 11.4999C21.3953 6.04416 16.9558 1.60464 11.5 1.60464Z" fill="#118EEA"/>
</svg>
